<?xml version="1.0" standalone="no"?>
<!DOCTYPE svg PUBLIC "-//W3C//DTD SVG 20010904//EN"
 "http://www.w3.org/TR/2001/REC-SVG-20010904/DTD/svg10.dtd">
<svg version="1.0" xmlns="http://www.w3.org/2000/svg"
 width="512.000000pt" height="512.000000pt" viewBox="0 0 512.000000 512.000000"
 preserveAspectRatio="xMidYMid meet">
<metadata>
Created by potrace 1.14, written by Peter Selinger 2001-2017
</metadata>
<g transform="translate(0.000000,512.000000) scale(0.100000,-0.100000)"
fill="#000000" stroke="none">
<path d="M1655 4909 c-110 -22 -143 -33 -225 -77 -86 -46 -124 -75 -193 -145
-124 -128 -186 -301 -157 -443 38 -184 167 -302 385 -351 11 -2 46 -6 78 -7
58 -4 87 -18 87 -41 0 -7 -19 -50 -42 -95 -39 -77 -42 -89 -42 -164 -1 -103
26 -168 95 -230 58 -52 96 -71 190 -95 l71 -18 -39 -24 c-21 -13 -42 -26 -48
-28 -5 -2 -15 -10 -22 -17 -7 -7 -59 -43 -114 -80 -128 -85 -163 -121 -164
-167 0 -30 -6 -40 -38 -61 -21 -14 -41 -26 -46 -26 -4 0 -16 -8 -27 -17 -11
-10 -49 -33 -84 -52 -36 -19 -67 -37 -70 -40 -9 -11 -233 -118 -320 -154 -189
-78 -362 -128 -560 -161 -19 -4 -46 -8 -60 -11 -28 -5 -107 -12 -219 -20 -82
-6 -91 -10 -91 -30 0 -12 192 -307 210 -325 3 -3 23 -33 45 -67 22 -35 43 -63
48 -63 4 0 7 -4 7 -10 0 -5 28 -50 63 -101 34 -50 69 -102 77 -115 8 -13 39
-58 67 -99 29 -42 53 -80 53 -85 0 -4 4 -10 8 -12 5 -1 46 -59 92 -128 46 -69
87 -126 92 -128 4 -2 8 -8 8 -12 0 -5 32 -54 70 -110 39 -56 70 -105 70 -111
0 -5 3 -9 8 -9 4 0 16 -16 26 -35 11 -19 23 -35 28 -35 4 0 8 -5 8 -11 0 -6
11 -25 25 -43 14 -18 25 -38 25 -44 0 -6 4 -12 8 -14 5 -1 32 -38 61 -80 70
-105 84 -113 189 -111 71 2 261 24 334 39 13 2 35 6 49 9 98 18 315 83 409
122 8 3 17 7 20 8 50 17 283 127 330 155 8 5 53 31 100 58 47 27 107 63 135
81 43 27 55 30 96 25 39 -5 55 -2 96 21 27 14 61 37 76 51 14 13 29 24 33 24
6 0 101 65 173 119 32 24 33 25 27 4 -9 -28 -10 -129 -2 -172 17 -87 89 -177
174 -217 61 -29 181 -42 239 -25 59 17 90 -19 66 -77 -34 -83 -48 -234 -29
-322 11 -49 50 -130 76 -160 12 -14 27 -32 34 -40 22 -30 102 -80 161 -101
204 -71 463 12 652 209 40 42 73 82 73 89 0 7 5 13 11 13 5 0 7 5 4 10 -3 6
-2 10 3 10 6 0 16 15 22 32 7 18 19 51 28 73 22 58 25 197 6 275 -24 97 -105
260 -171 345 -93 120 -170 204 -279 306 -79 73 -242 183 -354 239 -58 29 -57
28 -34 45 17 14 259 135 309 155 11 4 36 15 55 23 123 52 345 115 502 142 120
21 142 24 268 31 58 4 111 11 118 16 14 12 16 48 2 48 -5 0 -10 7 -10 15 0 8
-4 15 -9 15 -5 0 -13 9 -16 20 -3 11 -12 26 -18 33 -22 23 -77 107 -77 117 0
6 -4 10 -9 10 -5 0 -12 8 -15 18 -4 10 -14 27 -24 38 -9 11 -84 121 -167 244
-82 124 -152 227 -155 230 -3 3 -45 66 -95 140 -49 74 -92 137 -95 140 -3 3
-68 100 -145 215 -77 116 -146 216 -152 223 -7 7 -13 17 -13 21 0 4 -9 17 -20
29 -12 12 -17 22 -13 22 4 0 3 4 -2 8 -6 4 -33 40 -60 81 -65 96 -85 105 -218
97 -105 -7 -222 -21 -302 -36 -27 -6 -59 -12 -70 -14 -11 -2 -40 -9 -65 -16
-25 -7 -52 -14 -62 -15 -28 -6 -200 -62 -257 -85 -103 -40 -371 -167 -381
-180 -7 -10 -73 -41 -77 -37 -2 2 -5 31 -8 63 -16 193 -39 313 -89 468 -24 72
-131 301 -174 371 -10 17 -29 47 -41 68 -13 20 -27 37 -32 37 -5 0 -9 6 -9 13
0 19 -137 158 -190 194 -123 82 -255 115 -375 92z"/>
</g>
</svg>
